<svg width="19" height="20" viewBox="0 0 19 20" fill="none" xmlns="http://www.w3.org/2000/svg">
<path d="M2.69163 16.9681L0.870801 15.1869C0.712467 15.0285 0.633301 14.8438 0.633301 14.6327C0.633301 14.4216 0.712467 14.2369 0.870801 14.0785C2.03191 12.8251 3.37115 11.885 4.88851 11.2582C6.40587 10.6315 7.94302 10.3181 9.49997 10.3181C11.0569 10.3181 12.5908 10.6315 14.1015 11.2582C15.6123 11.885 16.9548 12.8251 18.1291 14.0785C18.2875 14.2369 18.3666 14.4216 18.3666 14.6327C18.3666 14.8438 18.2875 15.0285 18.1291 15.1869L16.3083 16.9681C16.1632 17.1133 15.9949 17.1924 15.8036 17.2056C15.6123 17.2188 15.4375 17.166 15.2791 17.0473L12.9833 15.3056C12.8777 15.2264 12.7986 15.1341 12.7458 15.0285C12.693 14.923 12.6666 14.8042 12.6666 14.6723V12.416C12.1652 12.2577 11.6507 12.1324 11.1229 12.04C10.5951 11.9476 10.0541 11.9014 9.49997 11.9014C8.9458 11.9014 8.40483 11.9476 7.87705 12.04C7.34927 12.1324 6.83469 12.2577 6.3333 12.416V14.6723C6.3333 14.8042 6.30691 14.923 6.25413 15.0285C6.20136 15.1341 6.12219 15.2264 6.01663 15.3056L3.7208 17.0473C3.56247 17.166 3.38764 17.2188 3.19632 17.2056C3.005 17.1924 2.83677 17.1133 2.69163 16.9681ZM4.74997 12.9702C4.36733 13.1681 3.99788 13.3957 3.64163 13.653C3.28538 13.9103 2.91594 14.1973 2.5333 14.5139L3.32497 15.3056L4.74997 14.1973V12.9702ZM14.25 13.0098V14.1973L15.675 15.3056L16.4666 14.5535C16.084 14.2105 15.7146 13.9136 15.3583 13.6629C15.0021 13.4122 14.6326 13.1945 14.25 13.0098ZM4.74997 7.94312C4.52566 7.94312 4.33764 7.86725 4.1859 7.71551C4.03417 7.56378 3.9583 7.37575 3.9583 7.15145V3.98478C3.9583 3.76048 4.03417 3.57246 4.1859 3.42072C4.33764 3.26898 4.52566 3.19312 4.74997 3.19312H7.91663C8.14094 3.19312 8.32896 3.26898 8.4807 3.42072C8.63243 3.57246 8.7083 3.76048 8.7083 3.98478C8.7083 4.20909 8.63243 4.39711 8.4807 4.54884C8.32896 4.70058 8.14094 4.77645 7.91663 4.77645H6.64997L9.44059 7.56707L13.3593 3.64832C13.5177 3.48999 13.7057 3.41082 13.9234 3.41082C14.1411 3.41082 14.3291 3.48999 14.4875 3.64832C14.6458 3.80666 14.725 3.99468 14.725 4.21239C14.725 4.43009 14.6458 4.61812 14.4875 4.77645L10.5885 8.67541C10.285 8.97888 9.90899 9.13062 9.46038 9.13062C9.01177 9.13062 8.63573 8.97888 8.33226 8.67541L5.54163 5.88478V7.15145C5.54163 7.37575 5.46577 7.56378 5.31403 7.71551C5.16229 7.86725 4.97427 7.94312 4.74997 7.94312Z" fill="#C62828"/>
</svg>
