<svg width="19" height="20" viewBox="0 0 19 20" fill="none" xmlns="http://www.w3.org/2000/svg">
<path d="M15.8333 9.81812C15.6222 9.81812 15.4342 9.74225 15.2693 9.59051C15.1043 9.43878 15.0087 9.25075 14.9823 9.02645C14.8108 7.79937 14.2929 6.75371 13.4286 5.88947C12.5644 5.02523 11.5188 4.50735 10.2917 4.33582C10.0674 4.30943 9.87934 4.21707 9.7276 4.05874C9.57587 3.90041 9.5 3.70909 9.5 3.48478C9.5 3.26048 9.57917 3.07246 9.7375 2.92072C9.89583 2.76898 10.0806 2.70631 10.2917 2.7327C11.9542 2.91742 13.3726 3.59693 14.5469 4.77124C15.7212 5.94555 16.4007 7.36395 16.5854 9.02645C16.6118 9.23756 16.5491 9.42228 16.3974 9.58062C16.2457 9.73895 16.0576 9.81812 15.8333 9.81812ZM12.5281 9.81812C12.3566 9.81812 12.2049 9.75874 12.0729 9.63999C11.941 9.52124 11.842 9.36291 11.776 9.16499C11.6705 8.78235 11.4693 8.44259 11.1724 8.14572C10.8755 7.84884 10.5358 7.64763 10.1531 7.54207C9.95521 7.4761 9.79688 7.37714 9.67812 7.2452C9.55937 7.11325 9.5 6.95492 9.5 6.7702C9.5 6.50631 9.59236 6.2919 9.77708 6.12697C9.96181 5.96204 10.1663 5.90596 10.3906 5.95874C11.1295 6.13027 11.7661 6.48322 12.3005 7.01759C12.8349 7.55197 13.1878 8.1886 13.3594 8.92749C13.4122 9.1518 13.3528 9.35631 13.1812 9.54103C13.0097 9.72575 12.792 9.81812 12.5281 9.81812ZM15.7937 16.9431C14.1444 16.9431 12.5149 16.5836 10.9052 15.8645C9.29549 15.1454 7.8309 14.1261 6.51146 12.8067C5.19201 11.4872 4.17274 10.0226 3.45365 8.41291C2.73455 6.80318 2.375 5.17367 2.375 3.52437C2.375 3.28687 2.45417 3.08895 2.6125 2.93062C2.77083 2.77228 2.96875 2.69312 3.20625 2.69312H6.4125C6.59722 2.69312 6.76215 2.75579 6.90729 2.88114C7.05243 3.00648 7.13819 3.15492 7.16458 3.32645L7.67917 6.09728C7.70556 6.30839 7.69896 6.48652 7.65937 6.63166C7.61979 6.7768 7.54722 6.90214 7.44167 7.0077L5.52187 8.94728C5.78576 9.43548 6.09913 9.90718 6.46198 10.3624C6.82483 10.8176 7.22396 11.2563 7.65937 11.6785C8.0684 12.0876 8.49722 12.4669 8.94583 12.8166C9.39444 13.1662 9.86944 13.4862 10.3708 13.7764L12.2312 11.916C12.35 11.7973 12.505 11.7082 12.6964 11.6488C12.8877 11.5895 13.0757 11.573 13.2604 11.5994L15.9917 12.1535C16.1764 12.2063 16.3281 12.302 16.4469 12.4405C16.5656 12.5791 16.625 12.7341 16.625 12.9056V16.1119C16.625 16.3494 16.5458 16.5473 16.3875 16.7056C16.2292 16.8639 16.0312 16.9431 15.7937 16.9431ZM4.76979 7.44312L6.07604 6.13687L5.73958 4.27645H3.97812C4.0441 4.81742 4.13646 5.3518 4.25521 5.87957C4.37396 6.40735 4.54549 6.92853 4.76979 7.44312ZM11.8552 14.5285C12.3698 14.7528 12.8943 14.931 13.4286 15.0629C13.963 15.1949 14.5007 15.2806 15.0417 15.3202V13.5785L13.1812 13.2025L11.8552 14.5285Z" fill="#3C3C3F"/>
</svg>
