<svg width="20" height="20" viewBox="0 0 20 20" fill="none" xmlns="http://www.w3.org/2000/svg">
<path d="M5.66969 18.1487C4.37577 17.4854 3.24926 16.5369 2.37506 15.3746C3.81623 12.2772 5.52734 9.3127 7.48855 6.51563C7.50072 6.4975 7.51731 6.48279 7.53675 6.47289C7.5562 6.46298 7.57785 6.45821 7.59966 6.45902C7.63841 6.46157 7.67611 6.47273 7.71001 6.49169C7.74392 6.51065 7.77317 6.53694 7.79564 6.56863C7.8157 6.59292 7.82963 6.62168 7.83626 6.65249C7.84288 6.6833 7.842 6.71525 7.8337 6.74564C7.80438 6.84084 7.77506 6.93552 7.74471 7.03226V7.0369C6.80339 10.0868 5.63574 13.8844 7.51221 15.2084C7.71471 15.356 7.95866 15.4358 8.2092 15.4364C8.82646 15.4364 9.5646 14.9542 10.4591 13.9595C11.3436 12.9182 12.1702 11.8291 12.9354 10.6971C13.5963 9.758 14.2815 8.78904 14.9415 7.97858C14.951 7.96725 14.9629 7.95813 14.9763 7.95182C14.9897 7.94552 15.0043 7.94218 15.0191 7.94204C15.0508 7.94443 15.0814 7.95448 15.1082 7.97134C15.1351 7.98819 15.1575 8.01134 15.1734 8.03878C15.1871 8.05748 15.1957 8.07944 15.1982 8.10247C15.2007 8.1255 15.1971 8.14878 15.1878 8.17C14.3504 9.87121 13.2949 12.2475 12.7291 13.6204C12.6458 13.8381 12.5696 14.0475 12.5028 14.2436C12.4035 14.5305 12.3195 14.8225 12.2512 15.1184C12.138 15.7328 12.1646 16.3649 12.3291 16.9677C12.4936 17.5704 12.7917 18.1284 13.2013 18.6L13.226 18.6252C12.0005 19.0641 10.6983 19.248 9.39925 19.1658C8.10019 19.0835 6.83161 18.7367 5.67123 18.1467L5.66969 18.1487ZM13.7383 18.2903C13.9214 17.609 14.1277 16.8371 14.4024 16.0853C14.405 16.0791 14.408 16.0709 14.4127 16.059C14.4173 16.0472 14.4204 16.04 14.4245 16.0297C15.3223 13.2207 16.3873 10.4679 17.6137 7.78613C17.7166 7.55662 17.8374 7.32558 17.9527 7.10173C18.2365 6.60801 18.4537 6.07889 18.5987 5.52815C19.1567 6.69305 19.4724 7.95918 19.5267 9.24977C19.5809 10.5404 19.3727 11.8285 18.9145 13.0362C18.4564 14.2439 17.7578 15.3459 16.8613 16.2755C15.9647 17.2051 14.8888 17.9429 13.6987 18.4441L13.7383 18.2903ZM1.05361 12.9525C0.311165 10.9372 0.270317 8.73027 0.937678 6.68888C1.60504 4.64749 2.94155 2.89114 4.73086 1.70417C6.52017 0.517187 8.65755 -0.0309568 10.797 0.148466C12.9365 0.327888 14.9528 1.22438 16.5196 2.69281C15.926 3.58612 15.195 4.57514 14.5521 5.44787L14.4538 5.57806C13.8504 6.37926 13.2193 7.18304 12.6149 7.96005C11.4076 9.50379 10.1577 11.1057 8.98798 12.8074C8.97439 12.8272 8.95609 12.8434 8.93473 12.8545C8.91336 12.8655 8.8896 12.8711 8.86555 12.8707C8.82379 12.8682 8.78308 12.8566 8.74622 12.8368C8.70936 12.817 8.67725 12.7894 8.65209 12.7559C8.62866 12.7296 8.61149 12.6982 8.60187 12.6643C8.59225 12.6303 8.59043 12.5946 8.59653 12.5599C9.17984 9.81357 9.73538 7.69865 10.2734 5.65576C10.3933 5.20396 10.5162 4.73724 10.6371 4.26897C10.8904 3.62247 10.9142 2.9086 10.7045 2.24667C10.5501 1.79544 10.3009 1.38256 9.97354 1.03586C9.75806 0.812055 9.46403 0.680852 9.15361 0.669991C9.07807 0.669234 9.00294 0.681238 8.9314 0.705497C8.85363 0.730286 8.78631 0.78025 8.74005 0.847522C8.33214 1.46039 7.88051 2.10413 7.35687 2.81579C5.32501 5.41278 3.47336 8.14594 1.8149 10.9961L1.72128 11.1772C1.43485 11.6717 1.22042 12.2045 1.08447 12.7595C1.07161 12.8228 1.06235 12.8887 1.05412 12.9525H1.05361Z" fill="#C62828"/>
</svg>
