<svg width="82" height="82" viewBox="0 0 82 82" fill="none" xmlns="http://www.w3.org/2000/svg">
<rect x="0.5" y="0.5" width="81" height="81" rx="40.5" stroke="#1565C0"/>
<path d="M36.6697 35.1487C35.3758 34.4854 34.2493 33.5369 33.3751 32.3746C34.8162 29.2772 36.5273 26.3127 38.4885 23.5156C38.5007 23.4975 38.5173 23.4828 38.5368 23.4729C38.5562 23.463 38.5779 23.4582 38.5997 23.459C38.6384 23.4616 38.6761 23.4727 38.71 23.4917C38.7439 23.5107 38.7732 23.5369 38.7956 23.5686C38.8157 23.5929 38.8296 23.6217 38.8363 23.6525C38.8429 23.6833 38.842 23.7152 38.8337 23.7456C38.8044 23.8408 38.7751 23.9355 38.7447 24.0323V24.0369C37.8034 27.0868 36.6357 30.8844 38.5122 32.2084C38.7147 32.356 38.9587 32.4358 39.2092 32.4364C39.8265 32.4364 40.5646 31.9542 41.4591 30.9595C42.3436 29.9182 43.1702 28.8291 43.9354 27.6971C44.5963 26.758 45.2815 25.789 45.9415 24.9786C45.951 24.9673 45.9629 24.9581 45.9763 24.9518C45.9897 24.9455 46.0043 24.9422 46.0191 24.942C46.0508 24.9444 46.0814 24.9545 46.1082 24.9713C46.1351 24.9882 46.1575 25.0113 46.1734 25.0388C46.1871 25.0575 46.1957 25.0794 46.1982 25.1025C46.2007 25.1255 46.1971 25.1488 46.1878 25.17C45.3504 26.8712 44.2949 29.2475 43.7291 30.6204C43.6458 30.8381 43.5696 31.0475 43.5028 31.2436C43.4035 31.5305 43.3195 31.8225 43.2512 32.1184C43.138 32.7328 43.1646 33.3649 43.3291 33.9677C43.4936 34.5704 43.7917 35.1284 44.2013 35.6L44.226 35.6252C43.0005 36.0641 41.6983 36.248 40.3993 36.1658C39.1002 36.0835 37.8316 35.7367 36.6712 35.1467L36.6697 35.1487ZM44.7383 35.2903C44.9214 34.609 45.1277 33.8371 45.4024 33.0853C45.405 33.0791 45.408 33.0709 45.4127 33.059C45.4173 33.0472 45.4204 33.04 45.4245 33.0297C46.3223 30.2207 47.3873 27.4679 48.6137 24.7861C48.7166 24.5566 48.8374 24.3256 48.9527 24.1017C49.2365 23.608 49.4537 23.0789 49.5987 22.5281C50.1567 23.6931 50.4724 24.9592 50.5267 26.2498C50.5809 27.5404 50.3727 28.8285 49.9145 30.0362C49.4564 31.2439 48.7578 32.3459 47.8613 33.2755C46.9647 34.2051 45.8888 34.9429 44.6987 35.4441L44.7383 35.2903ZM32.0536 29.9525C31.3112 27.9372 31.2703 25.7303 31.9377 23.6889C32.605 21.6475 33.9415 19.8911 35.7309 18.7042C37.5202 17.5172 39.6575 16.969 41.797 17.1485C43.9365 17.3279 45.9528 18.2244 47.5196 19.6928C46.926 20.5861 46.195 21.5751 45.5521 22.4479L45.4538 22.5781C44.8504 23.3793 44.2193 24.183 43.6149 24.9601C42.4076 26.5038 41.1577 28.1057 39.988 29.8074C39.9744 29.8272 39.9561 29.8434 39.9347 29.8545C39.9134 29.8655 39.8896 29.8711 39.8656 29.8707C39.8238 29.8682 39.7831 29.8566 39.7462 29.8368C39.7094 29.817 39.6772 29.7894 39.6521 29.7559C39.6287 29.7296 39.6115 29.6982 39.6019 29.6643C39.5922 29.6303 39.5904 29.5946 39.5965 29.5599C40.1798 26.8136 40.7354 24.6986 41.2734 22.6558C41.3933 22.204 41.5162 21.7372 41.6371 21.269C41.8904 20.6225 41.9142 19.9086 41.7045 19.2467C41.5501 18.7954 41.3009 18.3826 40.9735 18.0359C40.7581 17.8121 40.464 17.6809 40.1536 17.67C40.0781 17.6692 40.0029 17.6812 39.9314 17.7055C39.8536 17.7303 39.7863 17.7803 39.74 17.8475C39.3321 18.4604 38.8805 19.1041 38.3569 19.8158C36.325 22.4128 34.4734 25.1459 32.8149 27.9961L32.7213 28.1772C32.4349 28.6717 32.2204 29.2045 32.0845 29.7595C32.0716 29.8228 32.0624 29.8887 32.0541 29.9525H32.0536Z" fill="#C62828"/>
</svg>
