<svg width="19" height="19" viewBox="0 0 19 19" fill="none" xmlns="http://www.w3.org/2000/svg">
<g clip-path="url(#clip0_326_1666)">
<path d="M2.99053 9.45444C2.24002 8.14574 1.87763 7.07713 1.65912 5.99392C1.33595 4.39188 2.07552 2.82693 3.30068 1.82837C3.81848 1.40634 4.41206 1.55054 4.71825 2.09986L5.40952 3.34001C5.95744 4.32299 6.2314 4.81448 6.17706 5.33555C6.12272 5.85663 5.75325 6.28101 5.01431 7.1298L2.99053 9.45444ZM2.99053 9.45444C4.50965 12.1033 6.89362 14.4886 9.54552 16.0094M9.54552 16.0094C10.8542 16.7599 11.9228 17.1224 13.0061 17.3409C14.6081 17.664 16.173 16.9245 17.1716 15.6993C17.5936 15.1815 17.4494 14.5879 16.9001 14.2817L15.66 13.5904C14.6769 13.0425 14.1855 12.7686 13.6644 12.8229C13.1433 12.8772 12.7189 13.2467 11.8702 13.9856L9.54552 16.0094Z" stroke="#3C3C3F" stroke-width="1.5" stroke-linejoin="round"/>
</g>
<defs>
<clipPath id="clip0_326_1666">
<rect width="19" height="19" fill="white"/>
</clipPath>
</defs>
</svg>
