<svg width="19" height="20" viewBox="0 0 19 20" fill="none" xmlns="http://www.w3.org/2000/svg">
<path d="M9.49997 6.35982C9.27566 6.35982 9.08764 6.28395 8.9359 6.13222C8.78417 5.98048 8.7083 5.79246 8.7083 5.56816V3.19316C8.7083 2.96885 8.78417 2.78083 8.9359 2.62909C9.08764 2.47736 9.27566 2.40149 9.49997 2.40149C9.72427 2.40149 9.91229 2.47736 10.064 2.62909C10.2158 2.78083 10.2916 2.96885 10.2916 3.19316V5.56816C10.2916 5.79246 10.2158 5.98048 10.064 6.13222C9.91229 6.28395 9.72427 6.35982 9.49997 6.35982ZM13.3791 8.02232C13.234 7.86399 13.1581 7.67927 13.1515 7.46816C13.1449 7.25704 13.2208 7.07232 13.3791 6.91399L15.0614 5.2317C15.2198 5.07336 15.4078 4.9975 15.6255 5.00409C15.8432 5.01069 16.0312 5.09316 16.1896 5.25149C16.3347 5.40982 16.4106 5.59454 16.4172 5.80566C16.4238 6.01677 16.3479 6.20149 16.1896 6.35982L14.5073 8.04211C14.3489 8.20045 14.1609 8.27632 13.9432 8.26972C13.7255 8.26312 13.5375 8.18066 13.3791 8.02232ZM5.6208 8.02232C5.46247 8.18066 5.27445 8.26312 5.05674 8.26972C4.83903 8.27632 4.65101 8.20045 4.49268 8.04211L2.81038 6.35982C2.65205 6.20149 2.57618 6.01677 2.58278 5.80566C2.58938 5.59454 2.66525 5.40982 2.81038 5.25149C2.96872 5.09316 3.15674 5.01069 3.37445 5.00409C3.59215 4.9975 3.78018 5.07336 3.93851 5.2317L5.6208 6.91399C5.77913 7.07232 5.855 7.25704 5.8484 7.46816C5.84181 7.67927 5.76594 7.86399 5.6208 8.02232ZM2.69163 16.9682L0.870801 15.1869C0.712467 15.0286 0.633301 14.8439 0.633301 14.6327C0.633301 14.4216 0.712467 14.2369 0.870801 14.0786C2.03191 12.8251 3.37115 11.885 4.88851 11.2583C6.40587 10.6315 7.94302 10.3182 9.49997 10.3182C11.0569 10.3182 12.5908 10.6315 14.1015 11.2583C15.6123 11.885 16.9548 12.8251 18.1291 14.0786C18.2875 14.2369 18.3666 14.4216 18.3666 14.6327C18.3666 14.8439 18.2875 15.0286 18.1291 15.1869L16.3083 16.9682C16.1632 17.1133 15.9949 17.1925 15.8036 17.2057C15.6123 17.2189 15.4375 17.1661 15.2791 17.0473L12.9833 15.3057C12.8777 15.2265 12.7986 15.1341 12.7458 15.0286C12.693 14.923 12.6666 14.8043 12.6666 14.6723V12.4161C12.1652 12.2577 11.6507 12.1324 11.1229 12.04C10.5951 11.9477 10.0541 11.9015 9.49997 11.9015C8.9458 11.9015 8.40483 11.9477 7.87705 12.04C7.34927 12.1324 6.83469 12.2577 6.3333 12.4161V14.6723C6.3333 14.8043 6.30691 14.923 6.25413 15.0286C6.20136 15.1341 6.12219 15.2265 6.01663 15.3057L3.7208 17.0473C3.56247 17.1661 3.38764 17.2189 3.19632 17.2057C3.005 17.1925 2.83677 17.1133 2.69163 16.9682ZM4.74997 12.9702C4.36733 13.1682 3.99788 13.3958 3.64163 13.6531C3.28538 13.9103 2.91594 14.1973 2.5333 14.514L3.32497 15.3057L4.74997 14.1973V12.9702ZM14.25 13.0098V14.1973L15.675 15.3057L16.4666 14.5536C16.084 14.2105 15.7146 13.9136 15.3583 13.6629C15.0021 13.4123 14.6326 13.1945 14.25 13.0098Z" fill="#1565C0"/>
</svg>
