<svg width="37" height="23" viewBox="0 0 37 23" fill="none" xmlns="http://www.w3.org/2000/svg">
<path d="M5.28122 19.8714L4.91662 18.9827L2.94878 18.8825C1.56634 18.8415 0.908031 18.6942 0.738897 18.4527C0.526654 17.1823 0.469529 15.8913 0.56875 14.6074C0.64167 11.242 0.670028 11.0737 1.37087 9.82436C1.78985 9.03391 2.39885 8.35748 3.14425 7.85462C6.12259 6.37133 9.21933 5.13314 12.4031 4.1526C14.3054 3.7233 16.2801 3.71509 18.1861 4.12856C19.9837 4.51329 20.6167 4.75374 24.8177 6.74853C35.5806 11.8201 35.3618 11.6989 36.1163 13.4532C36.5042 14.4391 36.6227 17.8516 36.2622 18.4287C35.8022 18.732 35.2603 18.8909 34.7076 18.8845C33.4679 18.9847 33.3717 19.0288 33.2258 19.654C32.7415 20.9317 31.7745 21.9734 30.5288 22.5595C29.9011 22.8276 29.2257 22.9693 28.542 22.9764C27.8584 22.9835 27.1801 22.8558 26.5469 22.6009C25.9136 22.3459 25.338 21.9687 24.8537 21.4913C24.3694 21.0139 23.986 20.4459 23.726 19.8203L23.3614 18.9306H14.9026L14.7325 19.679C14.2561 20.9484 13.2969 21.9832 12.0598 22.5625C11.4269 22.8484 10.739 22.9957 10.0433 22.9943C9.02785 22.9914 8.03554 22.6939 7.18916 22.1389C6.34277 21.5838 5.67944 20.7955 5.28122 19.8714ZM7.10422 16.1944C6.87731 16.4694 6.71766 16.7924 6.63772 17.1385C6.55779 17.4845 6.55974 17.8441 6.64341 18.1892C6.62031 18.5926 6.69968 18.9953 6.87429 19.3605C7.0489 19.7258 7.31318 20.0419 7.64302 20.2802C8.00084 20.6935 8.46652 21.0017 8.98926 21.1711C9.51201 21.3405 10.0717 21.3647 10.6074 21.241C11.2946 21.0995 11.9205 20.7504 12.3987 20.242C12.8768 19.7336 13.1837 19.0909 13.2769 18.4027C13.3702 17.7144 13.2452 17.0145 12.9193 16.3995C12.5933 15.7845 12.0824 15.2847 11.4572 14.9691C11.0197 14.7421 10.5332 14.6232 10.0393 14.6225C9.46122 14.6462 8.89629 14.8002 8.38749 15.0726C7.87869 15.345 7.44046 15.7287 7.10422 16.1944ZM25.5449 19.6079C25.8764 20.1044 26.306 20.5294 26.8079 20.8573C27.4461 21.2035 28.1807 21.3356 28.9013 21.2337C29.6219 21.1318 30.2897 20.8015 30.8044 20.2923C31.3191 19.7831 31.653 19.1225 31.756 18.4097C31.859 17.6968 31.7255 16.9701 31.3755 16.3387C31.0441 15.8422 30.6145 15.4172 30.1126 15.0893C29.6283 14.7921 29.0701 14.6336 28.5002 14.6315C27.9132 14.6376 27.3377 14.7938 26.8297 15.0849C26.3217 15.376 25.8983 15.7921 25.6008 16.2928C25.3033 16.7935 25.1418 17.3617 25.1318 17.9424C25.1218 18.5231 25.2638 19.0965 25.5439 19.6069L25.5449 19.6079ZM10.7239 6.79662C10.7239 7.44585 12.8619 9.48872 14.1977 10.0658C15.4131 10.6189 15.7048 10.6429 22.2645 10.691L29.0674 10.7391L24.5727 8.57499C22.1187 7.39776 19.5432 6.27062 18.8626 6.07525C17.6357 5.76178 16.3723 5.61018 15.1052 5.62439C12.8011 5.62439 10.7239 6.07224 10.7239 6.79662ZM14.0235 2.00954C13.7549 2.00954 13.4973 1.90398 13.3074 1.71609C13.1175 1.5282 13.0108 1.27336 13.0108 1.00764C13.0108 0.741917 13.1175 0.48708 13.3074 0.299187C13.4973 0.111294 13.7549 0.0057373 14.0235 0.0057373L18.0747 0.0057373C18.3433 0.0057373 18.6009 0.111294 18.7908 0.299187C18.9807 0.48708 19.0874 0.741917 19.0874 1.00764C19.0874 1.27336 18.9807 1.5282 18.7908 1.71609C18.6009 1.90398 18.3433 2.00954 18.0747 2.00954H14.0235Z" fill="#929299"/>
</svg>
