<svg width="19" height="19" viewBox="0 0 19 19" fill="none" xmlns="http://www.w3.org/2000/svg">
<g clip-path="url(#clip0_326_1672)">
<path d="M9.49992 17.4167C13.8722 17.4167 17.4166 13.8723 17.4166 9.50004C17.4166 5.12779 13.8722 1.58337 9.49992 1.58337C5.12766 1.58337 1.58325 5.12779 1.58325 9.50004C1.58325 13.8723 5.12766 17.4167 9.49992 17.4167Z" stroke="#3C3C3F" stroke-width="1.5"/>
<path d="M5.9375 13.4583C7.78343 11.5249 11.1967 11.4338 13.0625 13.4583M11.4753 7.52079C11.4753 8.61385 10.5879 9.49996 9.49327 9.49996C8.39871 9.49996 7.51131 8.61385 7.51131 7.52079C7.51131 6.42773 8.39871 5.54163 9.49327 5.54163C10.5879 5.54163 11.4753 6.42773 11.4753 7.52079Z" stroke="#3C3C3F" stroke-width="1.5" stroke-linecap="round"/>
</g>
<defs>
<clipPath id="clip0_326_1672">
<rect width="19" height="19" fill="white"/>
</clipPath>
</defs>
</svg>
