<svg width="19" height="20" viewBox="0 0 19 20" fill="none" xmlns="http://www.w3.org/2000/svg">
<path d="M9.5 9.52645C9.27569 9.52645 9.08767 9.45058 8.93594 9.29884C8.7842 9.14711 8.70833 8.95909 8.70833 8.73478C8.70833 8.51048 8.7842 8.32246 8.93594 8.17072C9.08767 8.01898 9.27569 7.94312 9.5 7.94312C9.72431 7.94312 9.91233 8.01898 10.0641 8.17072C10.2158 8.32246 10.2917 8.51048 10.2917 8.73478C10.2917 8.95909 10.2158 9.14711 10.0641 9.29884C9.91233 9.45058 9.72431 9.52645 9.5 9.52645ZM12.6667 9.52645C12.4424 9.52645 12.2543 9.45058 12.1026 9.29884C11.9509 9.14711 11.875 8.95909 11.875 8.73478C11.875 8.51048 11.9509 8.32246 12.1026 8.17072C12.2543 8.01898 12.4424 7.94312 12.6667 7.94312C12.891 7.94312 13.079 8.01898 13.2307 8.17072C13.3825 8.32246 13.4583 8.51048 13.4583 8.73478C13.4583 8.95909 13.3825 9.14711 13.2307 9.29884C13.079 9.45058 12.891 9.52645 12.6667 9.52645ZM15.8333 9.52645C15.609 9.52645 15.421 9.45058 15.2693 9.29884C15.1175 9.14711 15.0417 8.95909 15.0417 8.73478C15.0417 8.51048 15.1175 8.32246 15.2693 8.17072C15.421 8.01898 15.609 7.94312 15.8333 7.94312C16.0576 7.94312 16.2457 8.01898 16.3974 8.17072C16.5491 8.32246 16.625 8.51048 16.625 8.73478C16.625 8.95909 16.5491 9.14711 16.3974 9.29884C16.2457 9.45058 16.0576 9.52645 15.8333 9.52645ZM15.7937 17.4431C14.1444 17.4431 12.5149 17.0836 10.9052 16.3645C9.29549 15.6454 7.8309 14.6261 6.51146 13.3067C5.19201 11.9872 4.17274 10.5226 3.45365 8.91291C2.73455 7.30318 2.375 5.67367 2.375 4.02437C2.375 3.78687 2.45417 3.58895 2.6125 3.43062C2.77083 3.27228 2.96875 3.19312 3.20625 3.19312H6.4125C6.59722 3.19312 6.76215 3.25579 6.90729 3.38114C7.05243 3.50648 7.13819 3.65492 7.16458 3.82645L7.67917 6.59728C7.70556 6.80839 7.69896 6.98652 7.65937 7.13166C7.61979 7.2768 7.54722 7.40214 7.44167 7.5077L5.52187 9.44728C5.78576 9.93548 6.09913 10.4072 6.46198 10.8624C6.82483 11.3176 7.22396 11.7563 7.65937 12.1785C8.0684 12.5876 8.49722 12.9669 8.94583 13.3166C9.39444 13.6662 9.86944 13.9862 10.3708 14.2764L12.2312 12.416C12.35 12.2973 12.505 12.2082 12.6964 12.1488C12.8877 12.0895 13.0757 12.073 13.2604 12.0994L15.9917 12.6535C16.1764 12.7063 16.3281 12.802 16.4469 12.9405C16.5656 13.0791 16.625 13.2341 16.625 13.4056V16.6119C16.625 16.8494 16.5458 17.0473 16.3875 17.2056C16.2292 17.3639 16.0312 17.4431 15.7937 17.4431ZM4.76979 7.94312L6.07604 6.63687L5.73958 4.77645H3.97812C4.0441 5.31742 4.13646 5.8518 4.25521 6.37957C4.37396 6.90735 4.54549 7.42853 4.76979 7.94312ZM11.8552 15.0285C12.3698 15.2528 12.8943 15.431 13.4286 15.5629C13.963 15.6949 14.5007 15.7806 15.0417 15.8202V14.0785L13.1812 13.7025L11.8552 15.0285Z" fill="#3C3C3F"/>
</svg>
